<svg xmlns="http://www.w3.org/2000/svg" width="1200" height="380" viewBox="0 0 1200 380" role="img" aria-labelledby="title desc"><title id="title">George Vogas — building one project at a time.</title><desc id="desc">Computer science student in Montréal. A circuit-board illustration accompanies the heading.</desc><defs><radialGradient id="glow"><stop stop-color="#d8e8f5"/><stop offset="1" stop-color="#eef5fb"/></radialGradient><pattern id="grid" width="32" height="32" patternUnits="userSpaceOnUse"><path d="M32 0H0V32" fill="none" stroke="#dce8f2" stroke-width=".6"/></pattern></defs><rect width="1200" height="380" rx="18" fill="#eef5fb"/><ellipse cx="980" cy="200" rx="220" ry="170" fill="url(#glow)"/><path d="M720 32H1160V320H720Z" fill="url(#grid)"/><path d="M64 42H128" stroke="#235ca3" stroke-width="3"/><text x="64" y="84" font-family="Arial,sans-serif" font-size="13" letter-spacing="3" fill="#506b87">SOFTWARE, WITH A LITTLE CURIOSITY.</text><text x="59" y="179" font-family="Georgia,serif" font-size="86" letter-spacing="-4" fill="#142c48">George Vogas</text><text x="64" y="229" font-family="Georgia,serif" font-style="italic" font-size="30" fill="#235ca3">One project at a time.</text><text x="64" y="279" font-family="Arial,sans-serif" font-size="17" fill="#506b87">Mobile apps. Web platforms. Whatever comes next.</text><g fill="none" stroke="#6d97bb" stroke-width="2" stroke-linejoin="round" stroke-linecap="round"><path d="M890 154H853L817 118H758"/><path d="M890 174H833L801 142H742"/><path d="M890 194H788"/><path d="M890 214H849L808 255H750"/><path d="M890 234H870L816 288H774"/><path d="M994 154H1033L1070 117H1126"/><path d="M994 174H1057L1090 141H1144"/><path d="M994 194H1118"/><path d="M994 214H1038L1080 256H1140"/><path d="M994 234H1018L1070 286H1112"/><path d="M912 142V104L880 72H824"/><path d="M932 142V80"/><path d="M952 142V96L980 68H1044"/><path d="M972 142V120L1023 69"/><path d="M912 246V270L886 296H854"/><path d="M934 246V307"/><path d="M956 246V282L980 306H1020"/><path d="M978 246V262L1007 291"/></g><g fill="#eef5fb" stroke="#235ca3" stroke-width="1.5"><circle cx="758" cy="118" r="4"/><circle cx="742" cy="142" r="4"/><circle cx="788" cy="194" r="4"/><circle cx="750" cy="255" r="4"/><circle cx="774" cy="288" r="4"/><circle cx="1126" cy="117" r="4"/><circle cx="1144" cy="141" r="4"/><circle cx="1118" cy="194" r="4"/><circle cx="1140" cy="256" r="4"/><circle cx="1112" cy="286" r="4"/><circle cx="824" cy="72" r="4"/><circle cx="932" cy="80" r="4"/><circle cx="1044" cy="68" r="4"/><circle cx="1023" cy="69" r="4"/><circle cx="854" cy="296" r="4"/><circle cx="934" cy="307" r="4"/><circle cx="1020" cy="306" r="4"/><circle cx="1007" cy="291" r="4"/></g><rect x="890" y="142" width="104" height="104" rx="12" fill="#dce9f4" stroke="#235ca3" stroke-width="1.5"/><rect x="904" y="156" width="76" height="76" rx="6" fill="none" stroke="#6d97bb"/><path d="M928 183L916 194L928 205M956 183L968 194L956 205M947 180L937 208" stroke="#235ca3" stroke-width="2.5" stroke-linecap="round" stroke-linejoin="round" fill="none"/><path d="M64 331H1136" stroke="#dce8f2"/><text x="64" y="356" font-family="Arial,sans-serif" font-size="12" letter-spacing="1.8" fill="#506b87">VANIER COLLEGE · COMPUTER SCIENCE</text><text x="1136" y="356" text-anchor="end" font-family="Arial,sans-serif" font-size="12" letter-spacing="1.8" fill="#506b87">MADE IN MONTRÉAL</text></svg>